<svg xmlns="http://www.w3.org/2000/svg" viewBox="0 0 48 48"><defs><linearGradient id="g" x1="6" y1="42" x2="44" y2="8" gradientUnits="userSpaceOnUse"><stop offset="0" stop-color="#00aff1"/><stop offset="0.55" stop-color="#4b7bd4"/><stop offset="1" stop-color="#9c3a86"/></linearGradient></defs><g fill="url(#g)"><circle cx="36.31" cy="39.76" r="1.04"/><circle cx="32.52" cy="42.10" r="1.18"/><circle cx="28.29" cy="43.53" r="1.31"/><circle cx="23.86" cy="44.00" r="1.43"/><circle cx="19.43" cy="43.47" r="1.55"/><circle cx="15.23" cy="41.98" r="1.65"/><circle cx="11.47" cy="39.59" r="1.74"/><circle cx="8.33" cy="36.42" r="1.81"/><circle cx="5.96" cy="32.64" r="1.86"/><circle cx="4.50" cy="28.43" r="1.89"/><circle cx="4.00" cy="24.00" r="1.90"/><circle cx="4.50" cy="19.57" r="1.89"/><circle cx="5.96" cy="15.36" r="1.86"/><circle cx="8.33" cy="11.58" r="1.81"/><circle cx="11.47" cy="8.41" r="1.74"/><circle cx="15.23" cy="6.02" r="1.65"/><circle cx="19.43" cy="4.53" r="1.55"/><circle cx="23.86" cy="4.00" r="1.43"/><circle cx="28.29" cy="4.47" r="1.31"/><circle cx="32.52" cy="5.90" r="1.18"/><circle cx="36.31" cy="8.24" r="1.04"/><circle cx="31.50" cy="36.99" r="0.94"/><circle cx="27.34" cy="38.62" r="1.11"/><circle cx="22.88" cy="38.96" r="1.27"/><circle cx="18.52" cy="37.96" r="1.41"/><circle cx="14.65" cy="35.73" r="1.53"/><circle cx="11.61" cy="32.45" r="1.62"/><circle cx="9.67" cy="28.42" r="1.68"/><circle cx="9.00" cy="24.00" r="1.70"/><circle cx="9.67" cy="19.58" r="1.68"/><circle cx="11.61" cy="15.55" r="1.62"/><circle cx="14.65" cy="12.27" r="1.53"/><circle cx="18.52" cy="10.04" r="1.41"/><circle cx="22.88" cy="9.04" r="1.27"/><circle cx="27.34" cy="9.38" r="1.11"/><circle cx="31.50" cy="11.01" r="0.94"/><circle cx="27.09" cy="33.51" r="0.83"/><circle cx="22.95" cy="33.95" r="1.06"/><circle cx="19.00" cy="32.66" r="1.26"/><circle cx="15.91" cy="29.88" r="1.41"/><circle cx="14.22" cy="26.08" r="1.49"/><circle cx="14.22" cy="21.92" r="1.49"/><circle cx="15.91" cy="18.12" r="1.41"/><circle cx="19.00" cy="15.34" r="1.26"/><circle cx="22.95" cy="14.05" r="1.06"/><circle cx="27.09" cy="14.49" r="0.83"/></g></svg>
